<svg version="1.1" id="Layer_1" xmlns="http://www.w3.org/2000/svg" xmlns:xlink="http://www.w3.org/1999/xlink" x="0px" y="0px"
	 width="100%" viewBox="0 0 688 688" enable-background="new 0 0 688 688" xml:space="preserve">
<path fill="#000000" opacity="1.000000" stroke="none" 
	d="
M663.468689,689.000000 
	C667.840759,687.174011 672.878662,688.224670 677.819458,688.082458 
	C685.046692,687.874329 685.697510,687.346375 685.704712,679.969604 
	C685.765564,617.931335 685.894409,555.893066 685.841064,493.854950 
	C685.832886,484.346436 688.429504,475.169128 688.805908,465.361084 
	C689.000000,539.666687 689.000000,614.333374 689.000000,689.000000 
	C680.574829,689.000000 672.256104,689.000000 663.468689,689.000000 
z"/>
<path fill="#000000" opacity="1.000000" stroke="none" 
	d="
M9.468657,689.000000 
	C12.641409,686.724915 16.656334,685.911133 20.894077,685.917358 
	C54.816689,685.967041 88.816040,684.615723 122.638527,686.478271 
	C151.572113,688.071655 180.449188,687.116943 209.331848,688.103943 
	C210.978012,688.160217 212.615768,688.461731 214.628723,688.824585 
	C146.645767,689.000000 78.291542,689.000000 9.468657,689.000000 
z"/>
<path fill="#000000" opacity="1.000000" stroke="none" 
	d="
M449.468658,689.000000 
	C451.159027,687.795044 453.536194,688.074646 455.847168,688.062805 
	C477.829865,687.950806 499.885986,688.975159 521.778381,687.523315 
	C554.405029,685.359619 587.021301,686.745605 619.624573,685.811401 
	C630.647522,685.495667 641.498962,686.556213 652.644592,688.814941 
	C585.312439,689.000000 517.624878,689.000000 449.468658,689.000000 
z"/>
<path fill="#000000" opacity="1.000000" stroke="none" 
	d="
M689.000000,156.531342 
	C687.980103,150.844498 685.817383,144.909805 685.895691,138.533585 
	C686.013794,128.914383 685.956909,119.290077 685.789612,109.671165 
	C685.642273,101.196144 686.021057,92.812630 688.806885,84.331024 
	C689.000000,108.020897 689.000000,132.041794 689.000000,156.531342 
z"/>
<path fill="#000000" opacity="1.000000" stroke="none" 
	d="
M297.468658,689.000000 
	C301.861542,687.255920 306.901886,688.181885 311.844818,688.183472 
	C319.312622,688.185913 326.809265,687.483215 334.627655,688.828003 
	C322.645782,689.000000 310.291534,689.000000 297.468658,689.000000 
z"/>
<path fill="#000000" opacity="1.000000" stroke="none" 
	d="
M1.000000,668.468872 
	C3.140569,672.790588 1.881202,677.809326 1.875934,682.721069 
	C1.872376,686.039246 2.921105,688.127380 6.679245,688.812378 
	C5.033042,689.000000 3.066084,689.000000 1.000000,689.000000 
	C1.000000,682.312805 1.000000,675.625305 1.000000,668.468872 
z"/>
<path fill="#000000" opacity="1.000000" stroke="none" 
	d="
M354.302124,372.000061 
	C354.304047,380.665619 354.042053,388.842926 354.404846,396.992401 
	C354.627289,401.989502 352.618134,403.545837 347.995972,403.207336 
	C344.846619,402.976685 341.656952,403.002411 338.503143,403.199341 
	C334.314575,403.460846 332.951782,401.516113 332.976105,397.540344 
	C333.069824,382.209869 332.911835,366.877838 333.015472,351.547516 
	C333.041321,347.726105 332.051514,344.477753 330.073334,341.212006 
	C317.301025,320.125977 304.663849,298.957977 292.020782,277.793945 
	C290.844391,275.824707 289.362610,273.960236 288.946594,270.931763 
	C293.190765,269.172302 297.730804,270.639374 302.008820,269.984253 
	C308.847321,268.937042 312.835083,271.641724 316.139618,277.869354 
	C324.333099,293.310333 333.347839,308.315613 342.040253,323.491577 
	C342.937805,325.058594 343.577789,326.815979 345.861176,328.452728 
	C348.512939,324.094269 351.214722,319.849030 353.724030,315.492950 
	C361.705902,301.636932 369.625519,287.744965 377.541412,273.851105 
	C378.464630,272.230682 379.274963,270.404724 381.412811,270.369751 
	C387.350220,270.272614 393.290253,270.336029 399.116791,270.336029 
	C400.154694,272.873505 398.521179,274.189026 397.630859,275.646576 
	C384.175476,297.674347 370.711975,319.697357 357.150330,341.659729 
	C355.148376,344.901825 354.134918,348.169373 354.253204,352.004395 
	C354.453522,358.497253 354.304169,365.000916 354.302124,372.000061 
z"/>
<path fill="#000000" opacity="1.000000" stroke="none" 
	d="
M422.015869,327.464844 
	C431.219360,324.239807 429.068878,332.584991 431.054840,336.611572 
	C434.652313,335.189209 433.432220,332.498169 433.592560,330.439178 
	C433.886780,326.660278 433.138794,321.748138 438.702881,321.990967 
	C443.679443,322.208160 443.374207,326.862640 443.219849,330.518860 
	C443.059662,334.313049 443.491211,337.046295 448.382599,336.863831 
	C452.908722,336.694977 453.622467,341.426392 456.197296,343.898834 
	C456.701202,343.791901 457.423767,343.849396 457.589722,343.572845 
	C463.828461,333.178253 475.672485,331.351990 484.957428,325.631012 
	C487.799316,323.879913 490.615204,324.110321 493.424042,325.867310 
	C498.363464,328.956970 503.381866,331.921234 508.301727,335.041199 
	C512.397827,337.638794 515.808594,336.875000 518.898499,333.342560 
	C521.747681,330.085327 524.499695,326.711487 527.620667,323.730377 
	C533.863403,317.767334 539.619690,318.543060 543.984314,325.954071 
	C548.462402,333.557800 552.605164,341.358185 556.984741,349.021057 
	C560.483643,355.143036 563.117310,355.641693 566.586121,349.818726 
	C573.056763,338.956818 582.060242,333.467346 594.675964,332.094757 
	C600.252563,331.488037 604.971130,330.996521 609.740540,334.239044 
	C612.838806,336.345428 616.451294,336.788635 620.236084,336.766083 
	C638.225708,336.658966 656.216553,336.700592 674.206543,336.781891 
	C676.161255,336.790741 678.596802,335.875885 679.905518,338.411011 
	C678.878113,340.830933 676.797729,340.208099 675.103882,340.212799 
	C656.114258,340.265259 637.124329,340.208618 618.134888,340.288818 
	C614.095215,340.305878 610.737610,338.573120 607.319092,336.858307 
	C606.129761,336.261719 605.045349,335.433533 603.822937,334.929565 
	C599.702026,333.230652 580.529480,338.072754 577.668579,341.585571 
	C574.621094,345.327576 571.735535,349.201050 568.746948,352.991608 
	C563.932129,359.098328 558.845154,358.922455 554.921448,352.264343 
	C550.359924,344.523987 546.116333,336.596924 541.674438,328.785187 
	C537.701538,321.798218 533.911865,321.451324 528.621155,327.460205 
	C525.980225,330.459656 523.334656,333.458405 520.593933,336.365784 
	C516.731506,340.463104 512.945129,341.307617 508.032043,338.658875 
	C502.764435,335.818970 497.660278,332.652771 492.632812,329.400146 
	C490.055847,327.732941 487.850647,327.682007 485.251221,329.244965 
	C480.689331,331.987915 476.030273,334.505615 470.777313,335.859100 
	C466.986542,336.835846 465.269287,340.530243 462.781219,343.140259 
	C457.030090,349.173248 455.720673,349.273193 451.139740,342.701752 
	C449.781006,340.752563 448.209106,340.068909 446.115570,340.261383 
	C441.156494,340.717346 439.702698,338.032013 439.676697,333.629517 
	C439.661713,331.098999 440.375366,328.385834 438.623840,325.562164 
	C436.037506,328.308319 436.725403,331.499908 436.614685,334.177612 
	C436.440765,338.383575 434.974915,340.198486 430.675690,340.104553 
	C426.296661,340.008820 426.646759,337.153839 426.625763,334.245453 
	C426.616852,333.008606 427.115265,331.516449 425.321991,330.594849 
	C423.050537,331.421387 424.010681,333.558624 423.681580,335.158081 
	C423.326294,336.884827 423.553650,339.346649 420.982727,339.187561 
	C416.993683,338.940674 413.036102,338.185486 408.597748,337.582245 
	C410.285156,334.196564 412.712921,334.564423 414.580383,335.062653 
	C419.283691,336.317322 421.152557,334.730072 420.807495,329.980499 
	C420.754913,329.256561 421.407532,328.481384 422.015869,327.464844 
z"/>
<path fill="#000000" opacity="1.000000" stroke="none" 
	d="
M68.287216,335.020386 
	C72.922623,334.879700 77.109764,334.440582 81.245056,334.733490 
	C101.612564,336.176178 121.469444,333.810394 140.469513,326.291962 
	C150.586212,322.288727 159.150955,324.334106 167.527023,330.440857 
	C171.143082,333.077240 175.176636,335.160950 179.104767,337.344147 
	C183.608276,339.847198 184.747894,338.999908 185.087860,333.736725 
	C185.306351,330.354034 183.745728,326.555542 187.895828,322.305725 
	C188.571671,329.253082 188.571075,334.886230 187.940765,340.526947 
	C187.787582,341.897888 186.389145,342.087219 185.195145,342.214478 
	C182.442917,342.507782 179.931107,341.869720 177.558472,340.438690 
	C172.282425,337.256348 166.728271,334.472595 161.734543,330.901245 
	C156.139099,326.899567 150.462936,326.652252 144.238739,328.588898 
	C136.456619,331.010315 128.617035,333.246735 120.829597,335.651489 
	C115.871063,337.182678 110.903671,338.316833 105.641228,338.124359 
	C75.806671,337.033386 46.098541,341.411713 16.261595,340.229797 
	C14.139500,340.145721 11.572375,341.143860 9.162089,337.075989 
	C29.317846,336.309387 48.677395,337.570068 68.287216,335.020386 
z"/>
<path fill="#000000" opacity="1.000000" stroke="none" 
	d="
M242.044495,336.781494 
	C242.424561,332.052277 240.952011,327.543304 243.654633,322.423584 
	C246.612625,327.202606 244.699844,331.688843 245.773422,335.715271 
	C248.683762,336.988556 252.080887,334.435425 255.222366,337.130554 
	C252.471603,341.257050 244.902359,336.929596 244.703552,344.190155 
	C241.205704,342.191193 242.296890,339.492157 242.044495,336.781494 
z"/>
<path fill="#000000" opacity="1.000000" stroke="none" 
	d="
M207.193207,326.157074 
	C206.542404,332.030884 208.118790,337.675995 206.148819,342.974426 
	C203.434570,342.549469 203.740616,340.973816 203.724991,339.764130 
	C203.650146,333.967529 203.635483,328.169281 203.690140,322.372498 
	C203.703125,320.997375 203.209152,318.916016 205.340088,318.836700 
	C207.434372,318.758759 207.175537,320.752808 207.229401,322.199860 
	C207.272461,323.357178 207.214157,324.518250 207.193207,326.157074 
z"/>
<path fill="#000000" opacity="1.000000" stroke="none" 
	d="
M219.401428,328.635071 
	C219.394501,334.607239 219.394501,340.141663 219.394501,346.387390 
	C215.232651,343.430420 214.892548,327.266571 217.962891,322.969055 
	C220.359238,324.204163 219.127762,326.431305 219.401428,328.635071 
z"/>
<path fill="#000000" opacity="1.000000" stroke="none" 
	d="
M197.275833,343.025757 
	C198.333221,336.199615 196.499207,329.588196 198.123245,322.581787 
	C201.131897,326.060516 201.383438,343.548126 199.012772,346.940765 
	C196.980148,346.515717 197.282242,344.883545 197.275833,343.025757 
z"/>
<path fill="#000000" opacity="1.000000" stroke="none" 
	d="
M229.045975,340.467041 
	C229.349930,333.782623 228.078995,327.389038 230.055267,321.290955 
	C232.058243,321.515045 232.261719,322.524292 232.266693,323.523315 
	C232.294678,329.131836 232.292786,334.740784 232.243637,340.349121 
	C232.235382,341.291016 232.243866,342.487274 230.981262,342.713684 
	C229.690994,342.945068 229.419159,341.842072 229.045975,340.467041 
z"/>
<path fill="#000000" opacity="1.000000" stroke="none" 
	d="
M235.697586,343.309509 
	C235.739243,338.066772 235.804337,333.249329 235.935425,328.433624 
	C235.946487,328.027222 236.399567,327.632812 236.607224,327.297516 
	C238.297516,326.929016 238.988968,327.924133 239.006042,329.161133 
	C239.070251,333.813629 239.185623,338.483246 238.854156,343.115875 
	C238.689041,345.423584 237.420074,346.738373 235.697586,343.309509 
z"/>
<path fill="#000000" opacity="1.000000" stroke="none" 
	d="
M209.731903,332.229523 
	C209.899231,329.744812 209.234467,327.514740 210.913788,325.692688 
	C213.983414,328.466736 214.239212,340.096100 211.179733,344.334198 
	C208.695786,340.470398 210.178238,336.420624 209.731903,332.229523 
z"/>
<path fill="#000000" opacity="1.000000" stroke="none" 
	d="
M226.101776,339.516968 
	C225.974228,341.411011 225.979797,342.950989 223.167145,343.562897 
	C222.232254,338.068939 222.718170,332.877747 222.941910,327.169525 
	C226.143188,329.378296 226.143188,329.378296 226.101776,339.516968 
z"/>
<path fill="#000000" opacity="1.000000" stroke="none" 
	d="
M194.004807,328.082886 
	C194.226730,332.882965 194.996002,337.375092 193.506927,342.147797 
	C190.692459,338.925873 190.326385,329.813080 192.553040,327.318787 
	C192.678070,327.178741 193.399582,327.571167 194.004807,328.082886 
z"/>
</svg>